# xmcd
#
# Track frame offsets:
#	150
#	14109
#	26355
#	38477
#	50749
#	66081
#	83151
#	95655
#	111178
#	127899
#	144086
#	157666
#	179975
#	197409
#
# Disc length: 2780 seconds
# Revision: 0
# Processed by: cddbd v1.5.2PL0 Copyright (c) Steve Scherf et al.
# Submitted via: dBpowerAMP V12.0
#
DISCID=b40ada0e
DTITLE=Sangbrødrene - Nåde
DYEAR=2007
DGENRE=Gospel
TTITLE0=Å hvilken nåde
TTITLE1=Sjelen den trenger til hvile
TTITLE2=Det fins ingen Gud så stor
TTITLE3=I den stille klare morgen
TTITLE4=Han tek ikkje glansen av livet
TTITLE5=Takk Jesus at du ei skammet deg
TTITLE6=Himmellosen
TTITLE7=Jeg har hørt om perleporten
TTITLE8=Kjære Jesus min frelser og herre
TTITLE9=En nådestol
TTITLE10=O, la mitt liv om Jesus tale
TTITLE11=Yes, I know
TTITLE12=Livet i dalen
TTITLE13=Sjung en sång om nåden
EXTD=
EXTT0=
EXTT1=
EXTT2=
EXTT3=
EXTT4=
EXTT5=
EXTT6=
EXTT7=
EXTT8=
EXTT9=
EXTT10=
EXTT11=
EXTT12=
EXTT13=
PLAYORDER=
